<svg width="33" height="25" viewBox="0 0 33 25" fill="none" xmlns="http://www.w3.org/2000/svg">
<path d="M15.0053 1.14951C15.3897 0.828796 15.8258 0.515908 15.9662 0.461152C16.1141 0.398575 16.3654 0.375108 16.5576 0.398575C16.7423 0.422041 16.9863 0.508086 17.1119 0.586308C17.2376 0.656708 18.0285 1.30595 18.8859 2.00995C19.7433 2.72177 21.3029 4.02026 22.3525 4.89635L22.4344 4.96486C23.5242 5.87621 25.7448 7.73323 27.4526 9.15163C29.2044 10.6144 31.0818 12.1788 31.6288 12.6325C32.1758 13.0862 32.6784 13.5477 32.7597 13.6572C32.8336 13.7667 32.9001 13.9545 32.8927 14.0874C32.8927 14.2204 32.8262 14.4394 32.7449 14.5802C32.6636 14.7132 32.5232 14.8775 32.4345 14.9401C32.3384 15.0026 32.161 15.073 32.0427 15.1043C31.9097 15.1356 31.7175 15.1122 31.5623 15.0418C31.4218 14.987 31.1188 14.7758 30.897 14.5802C30.6753 14.3925 30.4166 14.1891 30.3279 14.1422C30.1801 14.0562 30.1505 14.0718 30.084 14.2439C30.0396 14.369 30.0101 16.262 30.0101 19.3674C30.0101 24.1937 30.0101 24.2954 29.8622 24.4519C29.7144 24.6083 29.6109 24.6083 16.5058 24.6083C3.32679 24.6161 3.28984 24.6161 2.8833 24.2954V19.2345C2.8833 16.4419 2.85374 14.1187 2.82417 14.0718C2.78721 14.0014 2.56547 14.1344 2.07024 14.5177C1.68588 14.8149 1.28674 15.073 1.18326 15.0965C1.07978 15.12 0.880211 15.1043 0.739773 15.0652C0.599334 15.0261 0.37759 14.8697 0.237151 14.721C0.0597557 14.5098 0.000623781 14.369 0.000623781 14.15C-0.00676771 13.9779 0.0523642 13.7667 0.133671 13.6572C0.207585 13.5477 0.931951 12.9063 1.74501 12.2336C2.55069 11.5609 3.4968 10.7708 3.8442 10.4736C4.42073 9.98078 4.47247 9.9182 4.46508 9.66789C4.45769 9.51927 4.4503 8.68229 4.44291 7.81403C4.43552 6.60159 4.41334 6.22612 4.33943 6.22612C4.29508 6.22612 4.1916 6.16354 4.11768 6.08532C4.0142 5.97581 3.98464 5.81937 3.99203 5.24834C3.99203 4.80248 4.02159 4.50523 4.08073 4.45048C4.14725 4.37226 4.57595 4.34879 5.72903 4.34879C6.8821 4.34879 7.30341 4.37226 7.37733 4.44266C7.43646 4.51045 7.46603 4.78683 7.46603 5.27181C7.46603 5.88977 7.44385 6.0071 7.3182 6.13225C7.18515 6.24959 7.17037 6.35128 7.20732 7.6263L8.02778 6.94576C8.47866 6.5703 10.0752 5.24834 11.5757 4.00461C13.0762 2.76088 14.621 1.47804 15.0053 1.14951Z" fill="#F5735E"/>
<path fill-rule="evenodd" clip-rule="evenodd" d="M16.4689 2.7843C16.6611 2.7843 16.9567 2.9955 18.1615 4.01239C18.9672 4.6851 19.9355 5.49079 20.3051 5.8115C20.682 6.12438 21.3029 6.64065 21.6725 6.95354C22.0495 7.27425 22.9956 8.05647 23.7643 8.69789C24.533 9.33931 25.7969 10.3953 26.5657 11.0367C27.3344 11.686 28.0587 12.3274 28.1696 12.4682C28.2879 12.6012 28.3988 12.8358 28.4209 12.9766C28.4431 13.1096 28.4505 15.3781 28.4431 18.0141C28.4283 20.6424 28.3914 22.8248 28.3618 22.8639C28.3248 22.8952 26.5065 22.9343 24.3113 22.9421C22.1234 22.9578 20.3272 22.9421 20.3272 22.903C20.3272 22.8717 20.4825 22.7622 20.6746 22.6527C20.8668 22.5432 21.1994 22.2772 21.4212 22.066C21.6429 21.847 21.9164 21.5341 22.0273 21.362C22.1382 21.19 22.3229 20.8067 22.4338 20.5016C22.6112 20.0245 22.6408 19.8054 22.7295 17.7091L23.5056 17.4118C23.986 17.2241 24.3334 17.0364 24.4147 16.9269C24.4887 16.8252 24.5478 16.6609 24.5478 16.5514C24.5404 16.4419 24.496 16.2854 24.4443 16.1994C24.3852 16.1133 24.2447 15.996 24.1265 15.9413C23.9343 15.8474 23.853 15.863 23.3578 16.0664C23.0547 16.1994 22.7812 16.2854 22.7443 16.2698C22.7147 16.2541 22.6925 16.1446 22.6925 16.0195C22.6925 15.9021 22.6556 15.7457 22.6038 15.6675C22.5151 15.5423 22.1234 15.5345 10.5409 15.4954L10.4596 15.2216C10.4227 15.073 10.3635 14.9009 10.3266 14.8461C10.297 14.7914 10.2157 14.7757 10.1196 14.807C10.0309 14.8461 9.92003 14.9165 9.87568 14.9713C9.81655 15.0495 9.83873 15.2216 9.96438 15.6753C10.0605 16.0038 10.127 16.2854 10.1122 16.3011C10.0974 16.3089 9.82394 16.215 9.49872 16.0821C8.9887 15.8787 8.87783 15.8552 8.68565 15.9334C8.56 15.9804 8.42695 16.0742 8.37521 16.1446C8.32347 16.2229 8.27912 16.3871 8.27912 16.5123C8.27173 16.6374 8.33086 16.8252 8.40478 16.9269C8.48608 17.0285 8.84087 17.2163 10.09 17.6934L10.1048 18.7416C10.1122 19.5395 10.1566 19.9228 10.2674 20.306C10.3487 20.5876 10.5557 21.0413 10.7331 21.3151C10.9105 21.5967 11.2505 21.9956 11.4944 22.2068C11.7383 22.4259 12.0488 22.6527 12.1818 22.7231C12.3149 22.7935 12.4184 22.8717 12.4184 22.903C12.4184 22.9421 10.674 22.9656 8.53782 22.9656C5.18948 22.9656 4.64251 22.95 4.54642 22.8483C4.45033 22.7466 4.43555 22.0817 4.43555 17.8421C4.43555 13.3443 4.44294 12.9297 4.5612 12.6716C4.65729 12.4604 5.10078 12.0458 6.2095 11.1306C7.04474 10.4344 8.65609 9.089 9.79438 8.14251C10.9327 7.19603 12.6623 5.74892 13.6379 4.93541C14.6136 4.1219 15.5967 3.30839 15.8184 3.12066C16.1067 2.88599 16.2915 2.7843 16.4615 2.7843L16.4689 2.7843ZM11.4722 17.8421C11.5092 17.8655 11.5609 18.1393 11.5831 18.4444C11.6053 18.7573 11.6718 19.2344 11.7309 19.5004C11.7901 19.7741 11.8936 20.1261 11.9749 20.2826C12.0488 20.4468 12.2484 20.7441 12.4184 20.9475C12.581 21.1587 12.7214 21.3777 12.7214 21.4403C12.7214 21.5263 12.6771 21.542 12.5514 21.5107C12.4627 21.4794 12.3075 21.4168 12.204 21.362C12.1005 21.3073 11.9083 21.1274 11.7679 20.9631C11.6275 20.791 11.4353 20.4781 11.3392 20.2669C11.2505 20.0479 11.147 19.649 11.1248 19.3674C11.0953 19.0701 11.1101 18.679 11.1618 18.4287C11.2135 18.1941 11.2875 17.9516 11.3318 17.9046C11.3688 17.8499 11.4353 17.8186 11.4722 17.8421Z" fill="white"/>
<path d="M15.0645 11.6703C15.1384 11.5451 15.3453 11.3809 15.5301 11.3027C15.7371 11.2088 16.0401 11.154 16.3728 11.154C16.7645 11.154 16.9715 11.1931 17.2154 11.3261C17.4002 11.4278 17.6145 11.6077 17.6958 11.7251C17.7993 11.8737 17.8511 12.0614 17.8363 12.6011L18.4719 12.695C18.8193 12.7498 19.3737 12.8671 19.6989 12.9531C20.0242 13.047 20.5637 13.2582 20.9037 13.4303C21.3177 13.6337 21.6429 13.8762 21.9164 14.1656C22.1381 14.4003 22.3229 14.6271 22.3229 14.674C22.3229 14.7288 20.2902 14.7523 10.4226 14.7523L10.563 14.5332C10.637 14.4159 10.7848 14.2516 10.8809 14.1578C10.9696 14.0639 11.2209 13.8762 11.4205 13.7354C11.6274 13.5867 12.0044 13.3755 12.2705 13.266C12.5366 13.1487 13.054 12.9766 13.4162 12.8906C13.7783 12.7967 14.2736 12.7028 14.9314 12.6403V12.2648C14.924 12.0379 14.9758 11.8111 15.0645 11.6703Z" fill="#F5735E"/>
<path d="M16.7719 6.30427C16.7719 6.12435 16.698 5.84276 16.6241 5.67849C16.5206 5.45164 16.5058 5.3656 16.5723 5.3656C16.6241 5.3656 16.7867 5.45164 16.9271 5.56116C17.0676 5.67849 17.2597 5.88187 17.3558 6.01484C17.4519 6.15564 17.548 6.42942 17.5702 6.65626C17.6071 6.96133 17.5776 7.1256 17.4593 7.39937C17.378 7.59493 17.0823 7.97822 16.8089 8.25982C16.5354 8.54142 16.2693 8.83866 16.2175 8.92471C16.1584 9.01075 16.1141 9.22195 16.1141 9.39404C16.1141 9.56613 16.1732 9.8399 16.2397 9.99635C16.3136 10.1606 16.358 10.3092 16.3358 10.3327C16.3136 10.3483 16.2323 10.3327 16.151 10.2858C16.0697 10.2388 15.8923 10.0902 15.7593 9.94941C15.6188 9.81644 15.4636 9.61306 15.4045 9.4879C15.3453 9.37057 15.301 9.1359 15.301 8.96382C15.301 8.79173 15.3601 8.51795 15.4414 8.35368C15.5153 8.19724 15.811 7.83742 16.0993 7.55582C16.3875 7.27422 16.6536 6.95351 16.698 6.82835C16.7423 6.71102 16.7793 6.47635 16.7719 6.30427Z" fill="#F5735E"/>
</svg>
